# xmcd
#
# Track frame offsets:
#	150
#	9399
#	22962
#	36355
#	47117
#	56123
#	68972
#	81337
#	90879
#	104669
#	122923
#	136886
#	147124
#	159792
#	168952
#	181600
#
# Disc length: 2569 seconds
#
# Revision: 1
# Processed by: cddbd v1.4PL0 Copyright (c) Steve Scherf et al.
# Submitted via: EasyCDDAExtractor 5.0.7
#
DISCID=ca0a0710
DTITLE=Cousin Harley - Jukin'
DYEAR=1900
DGENRE=country
TTITLE0=Too Much Water
TTITLE1=Hot Little Baby
TTITLE2=Divorce Me C.O.D
TTITLE3=Up All Night
TTITLE4=Weary Blues (From Waitin')
TTITLE5=Honey Don't
TTITLE6=Rock A Hula Baby
TTITLE7=Jukin' 
TTITLE8=Fat Girl
TTITLE9=Louisa
TTITLE10=White Lightnin' 
TTITLE11=Come Back
TTITLE12=Will I Do ('Til The Real Thing Comes Along)
TTITLE13=Fool About You
TTITLE14=The Race Is On
TTITLE15=Walk Don't Run 
EXTD=
EXTT0=
EXTT1=
EXTT2=
EXTT3=
EXTT4=
EXTT5=
EXTT6=
EXTT7=
EXTT8=
EXTT9=
EXTT10=
EXTT11=
EXTT12=
EXTT13=
EXTT14=
EXTT15=
PLAYORDER=
